# xmcd
#
# Track frame offsets:
#	150
#	19045
#	41353
#	57979
#	76049
#	105860
#
# Disc length: 1633 seconds
#
# Revision: 0
# Processed by: cddbd v1.5PL3 Copyright (c) Steve Scherf et al.
# Submitted via: dBpowerAMP V4.0
#
DISCID=34065f06
DTITLE=Wendy Rich - Don't Mean A Thing
DYEAR=1900
DGENRE=Blues
TTITLE0=Don't Mean A Thing
TTITLE1=Let's Make Love
TTITLE2=Goodbye
TTITLE3=Tongue Tied
TTITLE4=Can't Help But Wonder
TTITLE5=DATA
EXTD=
EXTT0=
EXTT1=
EXTT2=
EXTT3=
EXTT4=
EXTT5=
PLAYORDER=
